<?xml version="1.0" encoding="utf-8"?>
<!-- Generator: Adobe Illustrator 22.1.0, SVG Export Plug-In . SVG Version: 6.00 Build 0)  -->
<svg version="1.1" id="Слой_1" xmlns="http://www.w3.org/2000/svg" xmlns:xlink="http://www.w3.org/1999/xlink" x="0px" y="0px"
	 viewBox="0 0 100 125" style="enable-background:new 0 0 100 125;" xml:space="preserve">
<path d="M50,44c-8.8,0-16,7.2-16,16s7.2,16,16,16s16-7.2,16-16S58.8,44,50,44z M50,72c-6.6,0-12-5.4-12-12s5.4-12,12-12
	s12,5.4,12,12S56.6,72,50,72z"/>
<path d="M96.5,58h-8.6c-1-19.4-16.6-34.9-35.9-35.9v-8.6c0-1.1-0.9-2-2-2s-2,0.9-2,2v8.6c-19.4,1-34.9,16.6-35.9,35.9H3.5
	c-1.1,0-2,0.9-2,2s0.9,2,2,2h8.6c1,19.4,16.6,34.9,35.9,35.9v8.6c0,1.1,0.9,2,2,2s2-0.9,2-2v-8.6c19.4-1,34.9-16.6,35.9-35.9h8.6
	c1.1,0,2-0.9,2-2S97.6,58,96.5,58z M75.5,62h8.4c-1,17.2-14.8,30.9-31.9,31.9v-8.4c0-1.1-0.9-2-2-2s-2,0.9-2,2v8.4
	c-17.2-1-30.9-14.8-31.9-31.9h8.4c1.1,0,2-0.9,2-2s-0.9-2-2-2h-8.4c1-17.2,14.8-30.9,31.9-31.9v8.4c0,1.1,0.9,2,2,2s2-0.9,2-2v-8.4
	c17.2,1,30.9,14.8,31.9,31.9h-8.4c-1.1,0-2,0.9-2,2S74.4,62,75.5,62z"/>
</svg>
